<?xml version="1.0" standalone="no"?>
<!DOCTYPE svg PUBLIC "-//W3C//DTD SVG 20010904//EN"
 "http://www.w3.org/TR/2001/REC-SVG-20010904/DTD/svg10.dtd">
<svg version="1.0" xmlns="http://www.w3.org/2000/svg"
 width="1048.000000pt" height="1048.000000pt" viewBox="0 0 1048.000000 1048.000000"
 preserveAspectRatio="xMidYMid meet">
<metadata>
Created by potrace 1.14, written by Peter Selinger 2001-2017
</metadata>
<g transform="translate(0.000000,1048.000000) scale(0.100000,-0.100000)"
fill="#000000" stroke="none">
<path d="M3338 10344 c-6 -6 -32 -12 -56 -13 -7 -1 -10 -5 -7 -11 3 -5 -1 -10
-9 -10 -8 0 -18 -9 -21 -20 -4 -11 -11 -17 -17 -14 -7 5 -9 1 -5 -9 3 -10 3
-17 -2 -17 -9 0 -45 -75 -46 -95 0 -5 -3 -12 -6 -15 -13 -10 -39 -82 -33 -91
3 -5 0 -9 -6 -9 -6 0 -8 -4 -5 -10 3 -5 2 -10 -4 -10 -5 0 -8 -9 -6 -20 2 -11
-1 -20 -7 -20 -6 0 -8 -11 -6 -25 3 -13 2 -22 -2 -20 -8 5 -25 -42 -22 -57 1
-5 -2 -8 -6 -8 -4 0 -8 -8 -9 -17 0 -10 -4 -29 -8 -43 -4 -14 -7 -31 -7 -37
-1 -7 -4 -13 -7 -13 -4 0 -8 -11 -9 -26 -1 -14 -7 -34 -12 -45 -8 -14 -7 -19
2 -19 10 0 10 -2 -1 -9 -7 -5 -11 -13 -7 -19 3 -6 2 -13 -3 -17 -5 -3 -8 -14
-6 -25 2 -11 0 -20 -5 -20 -5 0 -7 -9 -5 -20 2 -11 0 -20 -4 -20 -4 0 -7 -10
-6 -22 1 -13 -5 -32 -14 -42 -9 -11 -11 -16 -4 -13 6 4 14 3 18 -3 3 -5 1 -10
-4 -10 -6 0 -11 -13 -11 -28 0 -16 -3 -32 -7 -36 -11 -11 -11 -50 1 -65 9 -12
8 -13 -3 -6 -11 6 -13 4 -8 -8 3 -10 3 -17 -2 -17 -4 0 -6 -15 -4 -32 3 -25 2
-30 -6 -18 -7 9 -11 10 -11 3 0 -6 5 -15 10 -18 6 -4 7 -13 1 -24 -6 -10 -6
-23 -1 -31 5 -8 5 -19 1 -25 -5 -5 -8 -17 -9 -25 -2 -89 -6 -119 -16 -113 -7
4 -6 1 1 -8 12 -15 12 -43 0 -55 -3 -4 -2 -15 4 -25 7 -14 6 -19 -2 -19 -8 0
-7 -5 2 -17 12 -14 12 -15 1 -9 -11 7 -12 4 -3 -13 7 -12 9 -27 4 -33 -6 -11
-8 -51 -3 -63 7 -14 5 -31 -3 -42 -6 -9 -5 -13 4 -13 10 0 10 -3 2 -11 -9 -9
-8 -19 2 -39 8 -15 12 -30 9 -33 -7 -7 -10 -97 -3 -97 3 0 4 -11 1 -25 -2 -14
1 -32 8 -40 9 -11 9 -15 1 -15 -7 0 -9 -5 -6 -11 7 -10 17 -81 19 -121 0 -10
5 -18 11 -18 5 0 3 -5 -5 -10 -12 -7 -12 -10 -1 -10 7 0 11 -6 7 -15 -3 -8 2
-19 12 -24 9 -6 12 -11 5 -11 -6 0 -11 -13 -11 -29 1 -16 -6 -37 -16 -46 -9
-9 -14 -21 -10 -26 3 -5 2 -8 -3 -7 -4 2 -9 -1 -10 -5 -1 -4 -17 -23 -35 -41
-57 -57 -88 -98 -82 -107 3 -5 -1 -9 -9 -9 -13 0 -31 -34 -28 -53 1 -5 -3 -6
-8 -2 -12 7 -33 -29 -23 -40 4 -3 0 -5 -8 -3 -9 2 -14 -4 -14 -14 1 -11 -4
-15 -15 -10 -14 5 -14 4 -1 -14 8 -10 11 -16 6 -12 -9 8 -46 -33 -46 -51 0 -5
-8 -15 -17 -20 -10 -6 -15 -11 -10 -11 7 0 -21 -50 -34 -60 -4 -3 -9 -12 -11
-20 -2 -8 -10 -20 -18 -27 -11 -9 -12 -12 -2 -13 7 0 10 -5 7 -10 -4 -6 -10
-8 -14 -6 -4 3 -13 -11 -20 -30 -7 -20 -17 -32 -23 -28 -7 4 -8 2 -4 -5 4 -6
2 -18 -4 -26 -7 -8 -9 -15 -4 -15 4 0 -1 -7 -12 -16 -10 -8 -12 -12 -5 -8 9 5
6 -5 -7 -23 -12 -17 -22 -36 -22 -43 0 -6 -4 -9 -9 -5 -6 3 -8 -4 -6 -15 2
-11 -4 -27 -13 -37 -9 -9 -16 -18 -14 -20 6 -7 -11 -53 -19 -53 -5 0 -9 -7 -9
-15 0 -9 -6 -12 -15 -9 -8 4 -15 1 -15 -5 0 -6 -9 -11 -20 -11 -11 0 -20 -4
-20 -9 0 -7 -45 -23 -75 -25 -5 -1 -15 -7 -21 -15 -6 -8 -15 -11 -21 -8 -5 3
-15 -3 -23 -13 -8 -10 -18 -16 -23 -13 -6 3 -16 -2 -24 -12 -7 -11 -13 -16
-13 -12 0 4 -10 2 -22 -5 -13 -7 -26 -11 -30 -10 -5 1 -8 -2 -8 -6 0 -8 -46
-35 -62 -36 -4 -1 -17 -9 -28 -19 -11 -9 -31 -18 -45 -19 -13 -1 -22 -5 -19
-9 2 -3 -24 -24 -59 -45 -34 -21 -64 -41 -65 -46 -2 -4 -8 -6 -13 -2 -5 3 -9
0 -9 -5 0 -6 -5 -11 -11 -11 -6 0 -17 -6 -24 -12 -30 -27 -45 -38 -50 -38 -21
1 -25 -1 -20 -10 3 -5 1 -10 -5 -10 -17 0 -40 -26 -32 -36 4 -5 -2 -2 -12 6
-12 9 -17 10 -12 3 4 -8 -2 -17 -18 -25 -14 -6 -26 -15 -26 -19 0 -4 -9 -11
-20 -14 -11 -4 -18 -11 -15 -16 4 -5 0 -9 -8 -9 -8 0 -22 -9 -32 -20 -10 -11
-24 -20 -31 -20 -7 0 -16 -9 -19 -20 -4 -11 -9 -19 -13 -17 -4 2 -64 -54 -134
-124 -71 -71 -126 -129 -123 -129 3 0 -4 -9 -15 -20 -11 -11 -26 -20 -33 -20
-8 0 -7 -3 3 -10 12 -8 12 -10 -3 -16 -9 -3 -17 -12 -17 -20 0 -8 -6 -13 -13
-11 -6 1 -11 -4 -10 -10 2 -7 -2 -13 -7 -13 -6 0 -10 -5 -10 -10 0 -6 -11 -21
-25 -34 -13 -13 -22 -26 -18 -29 3 -4 0 -7 -7 -7 -7 0 -10 -3 -7 -7 4 -3 -4
-16 -18 -28 -13 -13 -21 -26 -18 -29 3 -3 -2 -8 -11 -12 -9 -3 -14 -10 -11
-14 3 -5 -5 -19 -17 -31 -13 -12 -17 -19 -10 -15 7 4 1 -9 -13 -30 -14 -20
-25 -43 -25 -50 0 -8 -4 -14 -9 -14 -9 0 -34 -53 -35 -75 -1 -5 -5 -13 -9 -16
-5 -3 -9 -12 -11 -20 -1 -8 -9 -30 -18 -49 -31 -64 -44 -105 -42 -127 1 -12
-3 -20 -7 -17 -5 3 -9 2 -10 -3 -3 -33 -13 -76 -20 -88 -4 -5 -5 -20 -4 -32 1
-13 -2 -23 -6 -23 -4 0 -6 -9 -4 -20 2 -11 -1 -22 -6 -25 -5 -4 -7 -10 -4 -15
3 -5 1 -19 -6 -31 -8 -15 -8 -19 0 -15 6 4 11 2 11 -3 0 -6 -3 -11 -7 -11 -5
0 -8 -19 -7 -42 0 -24 -5 -46 -10 -50 -7 -5 -6 -8 3 -8 11 0 11 -3 1 -15 -7
-8 -8 -15 -3 -15 5 0 10 -7 10 -15 0 -8 -4 -12 -9 -9 -4 3 -8 1 -8 -5 0 -5 4
-12 8 -15 5 -3 8 -15 7 -28 -1 -13 2 -33 6 -45 6 -15 5 -23 -2 -23 -8 0 -7 -5
1 -15 7 -8 9 -15 4 -15 -5 0 -2 -5 6 -10 8 -5 10 -10 4 -10 -6 0 -11 -7 -11
-15 0 -8 5 -15 10 -15 5 0 7 -9 4 -20 -3 -11 0 -20 6 -20 7 0 5 -5 -3 -10 -12
-8 -12 -10 5 -10 11 0 16 -4 10 -8 -14 -10 -17 -32 -4 -32 6 0 9 -9 6 -20 -3
-11 0 -20 6 -20 6 0 8 -3 4 -6 -3 -4 0 -19 9 -35 8 -16 12 -29 8 -29 -4 0 -1
-7 6 -15 6 -8 9 -19 5 -25 -3 -5 -1 -10 5 -10 7 0 10 -7 6 -15 -3 -8 -2 -15 2
-15 4 0 19 -24 32 -54 13 -30 27 -53 32 -50 4 3 5 -2 2 -10 -3 -9 -1 -16 6
-16 6 0 8 -4 5 -10 -3 -5 -1 -10 4 -10 6 0 11 -7 11 -15 0 -8 5 -15 10 -15 6
0 10 -7 10 -15 0 -8 5 -15 10 -15 6 0 10 -6 10 -13 0 -7 9 -23 20 -35 12 -12
18 -22 15 -22 -4 0 0 -7 9 -15 8 -8 19 -15 25 -15 6 0 10 -6 8 -12 -1 -7 4
-12 10 -11 7 2 12 0 12 -5 -1 -4 -1 -14 0 -22 1 -13 2 -13 11 0 8 13 10 12 10
-3 0 -10 19 -37 42 -60 24 -22 42 -45 40 -50 -1 -4 2 -6 7 -3 5 3 14 -1 21 -9
7 -8 16 -13 20 -10 5 3 11 -4 15 -15 4 -11 11 -17 17 -14 7 5 9 1 5 -9 -4 -10
-2 -16 6 -14 7 1 12 -9 12 -25 1 -15 4 -30 8 -34 10 -10 9 -26 -1 -20 -4 2 -8
-4 -8 -15 0 -10 3 -19 6 -19 3 0 6 -9 6 -19 0 -11 -3 -18 -7 -16 -3 3 -6 -9
-5 -25 1 -17 5 -30 10 -30 6 0 5 -5 -2 -12 -8 -8 -8 -17 0 -31 7 -15 7 -22 -3
-28 -9 -6 -10 -9 -2 -9 6 0 10 -8 9 -17 -2 -10 0 -30 5 -45 6 -21 4 -28 -9
-31 -15 -4 -15 -5 0 -6 12 -1 15 -6 11 -18 -5 -12 -3 -14 8 -8 12 7 12 6 1 -7
-8 -10 -9 -18 -3 -22 6 -4 8 -13 5 -20 -3 -8 -1 -16 3 -19 5 -3 8 -20 7 -36
-1 -17 3 -31 9 -31 6 0 8 -3 5 -6 -4 -3 -2 -20 3 -37 6 -18 12 -43 15 -57 3
-14 10 -27 15 -28 6 -3 5 -9 -2 -18 -9 -11 -8 -15 4 -20 9 -3 13 -12 10 -20
-3 -8 0 -14 6 -14 6 0 11 -9 11 -20 0 -11 5 -20 11 -20 5 0 8 -4 4 -9 -6 -10
43 -110 59 -122 5 -4 5 -12 1 -19 -5 -9 -4 -11 3 -6 7 4 12 2 12 -4 0 -6 12
-23 27 -38 15 -15 26 -28 25 -29 -7 -10 1 -23 18 -28 11 -3 20 -11 20 -16 0
-5 11 -22 25 -37 14 -15 25 -22 25 -17 0 5 7 -1 16 -13 8 -12 20 -20 25 -17 5
4 9 -1 9 -9 0 -9 7 -16 15 -16 8 0 15 -3 15 -7 1 -10 80 -59 87 -55 3 2 9 0
12 -5 3 -4 15 -15 25 -23 18 -13 19 -13 11 0 -7 12 -6 13 6 4 15 -12 69 -28
83 -25 5 1 6 -6 2 -15 -6 -15 -4 -15 11 -3 9 8 14 9 10 2 -4 -6 0 -18 8 -25 9
-7 24 -21 33 -31 9 -9 21 -17 27 -17 6 0 17 -9 25 -20 8 -11 20 -20 27 -20 7
0 13 -4 13 -10 0 -5 7 -10 15 -10 8 0 15 -5 15 -12 0 -6 3 -8 7 -5 3 4 13 1
22 -7 9 -8 23 -16 31 -18 8 -2 18 -7 21 -11 3 -5 12 -10 20 -11 8 -2 25 -8 39
-13 14 -6 28 -9 33 -6 4 2 7 -1 7 -8 0 -7 3 -9 7 -6 3 4 12 2 20 -4 7 -6 13
-8 13 -4 0 4 8 1 17 -6 14 -12 16 -12 8 0 -6 11 -5 12 6 5 26 -16 129 -27 129
-14 0 5 7 7 15 4 8 -4 22 -1 29 5 10 8 16 9 21 1 4 -7 12 -7 24 0 10 5 22 6
26 2 5 -4 5 -1 1 6 -4 6 -2 12 4 12 6 0 8 5 5 10 -3 6 -1 10 6 10 10 0 10 3 1
12 -7 7 -12 21 -12 32 0 17 -2 18 -10 6 -7 -11 -10 -11 -10 -2 0 7 -4 10 -10
7 -5 -3 -10 -1 -10 4 0 6 -5 11 -12 11 -7 0 -23 12 -36 28 -13 15 -26 26 -28
25 -11 -7 -24 -2 -22 10 2 6 -3 11 -9 9 -7 -1 -13 5 -13 13 0 8 -5 15 -11 15
-5 0 -7 5 -4 10 4 6 3 10 -2 9 -17 -3 -36 1 -30 7 3 3 -4 17 -16 29 -46 49
-67 77 -67 91 0 8 -4 14 -10 14 -5 0 -12 11 -16 25 -3 14 -10 25 -16 25 -5 0
-7 4 -4 9 3 5 -1 14 -10 21 -8 7 -13 19 -10 26 3 7 -2 18 -10 24 -8 7 -14 19
-14 26 0 8 -5 14 -12 14 -6 0 -8 3 -5 7 4 3 0 17 -9 31 -9 13 -11 21 -5 18 6
-4 11 -3 11 2 0 6 -7 12 -15 16 -8 3 -12 12 -9 21 4 8 2 21 -3 28 -5 6 -11 33
-12 59 -2 43 0 48 18 48 12 0 21 -4 21 -10 0 -5 5 -10 11 -10 5 0 7 5 3 11 -4
8 0 8 15 0 16 -9 21 -9 21 1 0 9 3 10 8 2 9 -15 231 -17 249 -2 10 8 13 7 13
-3 0 -9 3 -10 8 -4 11 15 28 18 141 20 70 1 106 6 109 13 2 7 8 12 13 12 6 0
7 -5 3 -12 -5 -7 -3 -8 5 -4 7 5 10 15 7 23 -3 8 -2 11 3 8 11 -6 16 1 25 37
5 23 3 27 -11 22 -15 -5 -15 -4 -3 5 10 7 19 6 31 -5 8 -8 19 -11 22 -7 4 3 7
1 7 -5 0 -7 3 -11 8 -10 15 3 42 -15 35 -25 -3 -5 -1 -7 5 -3 12 7 62 -13 62
-26 0 -4 3 -7 8 -6 16 3 62 -15 62 -25 0 -6 3 -8 6 -4 4 3 20 -1 36 -9 16 -8
33 -12 38 -9 5 3 13 -3 19 -12 6 -10 11 -12 11 -6 0 9 7 10 23 4 12 -4 28 -6
35 -4 6 3 12 -1 12 -7 0 -10 4 -10 15 0 14 12 20 7 16 -14 -1 -5 4 -4 12 2 8
7 17 9 21 5 4 -4 35 -6 69 -4 34 2 81 4 104 5 24 0 43 5 43 9 0 4 10 3 21 -4
12 -6 19 -7 15 -1 -3 5 1 12 9 16 8 3 15 13 15 21 0 10 5 13 12 9 7 -4 2 6
-10 23 -12 17 -22 38 -22 47 0 9 -3 15 -7 14 -18 -5 -54 15 -50 26 4 9 -3 12
-19 10 -15 -1 -24 3 -24 12 0 8 -7 14 -16 14 -8 0 -13 4 -9 9 3 5 -4 12 -15
16 -11 3 -20 13 -20 21 0 8 -4 12 -10 9 -5 -3 -10 1 -10 9 0 9 -7 16 -15 16
-9 0 -12 6 -8 17 4 10 2 14 -4 10 -5 -3 -20 13 -33 36 -13 23 -27 44 -31 47
-4 3 -10 18 -13 34 -4 22 -2 25 8 17 7 -6 17 -7 21 -3 5 4 5 1 1 -5 -5 -9 0
-13 13 -13 11 0 23 -4 26 -10 3 -5 17 -10 31 -10 14 0 24 -6 24 -14 0 -8 8
-13 18 -12 9 2 20 -1 23 -5 3 -5 17 -10 32 -11 15 -1 27 -6 27 -11 0 -5 6 -7
13 -4 6 2 27 -2 45 -9 21 -9 30 -9 26 -2 -5 7 -3 8 7 2 8 -5 25 -10 38 -12 14
-2 33 -8 44 -14 12 -6 17 -6 13 0 -6 11 50 9 61 -2 3 -3 14 1 24 10 13 12 19
12 25 3 5 -8 3 -10 -6 -4 -9 5 -11 4 -6 -4 4 -6 13 -8 19 -4 7 4 23 9 37 11
27 4 70 42 48 42 -9 0 -9 3 2 10 13 8 12 10 -3 10 -26 0 -58 41 -45 57 8 10
15 9 32 -2 12 -8 31 -16 41 -18 11 -1 26 -6 33 -10 6 -5 17 -5 22 -2 6 3 10
-2 11 -12 0 -11 3 -13 6 -5 2 6 10 9 16 5 19 -12 39 -12 60 -1 15 8 18 7 11
-4 -6 -11 -5 -11 8 0 13 10 17 10 22 -4 8 -22 8 -26 -4 -19 -5 3 -10 -1 -10
-10 0 -9 -4 -14 -9 -11 -4 3 -7 -6 -5 -19 1 -14 -2 -25 -7 -25 -5 0 -9 -9 -9
-21 0 -13 -4 -18 -12 -13 -10 6 -10 4 0 -8 8 -10 9 -19 3 -22 -5 -3 -8 -17 -7
-31 2 -17 -3 -26 -15 -30 -11 -4 -19 -11 -19 -16 0 -5 -6 -9 -12 -9 -15 -1
-53 -33 -83 -69 -13 -16 -15 -21 -5 -16 12 6 13 5 3 -6 -7 -7 -13 -23 -13 -36
0 -13 -4 -23 -10 -23 -5 0 -10 -7 -10 -16 0 -8 -4 -13 -9 -10 -5 4 -12 0 -14
-6 -4 -10 -6 -10 -6 -1 -1 9 -11 9 -40 -2 -41 -14 -84 -49 -74 -59 4 -3 0 -6
-7 -6 -7 0 -11 -3 -7 -6 3 -4 0 -13 -8 -21 -8 -8 -15 -25 -15 -38 0 -13 -5
-27 -10 -30 -8 -5 -8 -11 0 -20 8 -10 8 -15 0 -20 -8 -5 -8 -11 1 -21 9 -11 8
-14 -2 -14 -11 0 -11 -2 -2 -8 10 -6 8 -12 -5 -22 -18 -15 -24 -17 -102 -24
-25 -2 -66 -7 -92 -11 -33 -5 -48 -4 -48 4 0 6 -11 11 -25 11 -14 0 -25 5 -25
10 0 7 -6 7 -19 1 -10 -6 -21 -8 -23 -6 -8 8 -77 -24 -98 -45 -11 -11 -20 -18
-20 -15 0 3 -6 0 -14 -7 -8 -7 -12 -16 -9 -20 2 -5 -1 -9 -6 -9 -12 -2 -26 -5
-38 -9 -5 -1 -11 -2 -15 -1 -5 0 -8 -4 -8 -10 0 -6 -7 -9 -15 -5 -8 3 -15 1
-15 -4 0 -5 -7 -7 -15 -4 -8 4 -15 1 -15 -5 0 -6 -9 -11 -20 -11 -11 0 -20 -4
-20 -10 0 -5 -7 -7 -15 -4 -8 4 -15 1 -15 -7 0 -7 -3 -9 -7 -6 -3 4 -17 0 -30
-8 -13 -9 -23 -12 -23 -9 0 4 -16 -9 -35 -29 -22 -22 -33 -42 -29 -51 3 -9 1
-16 -5 -16 -6 0 -11 -5 -11 -11 0 -5 6 -7 13 -3 6 4 3 -3 -8 -16 -11 -13 -14
-20 -7 -16 10 6 12 1 9 -21 -2 -15 0 -36 5 -45 6 -13 5 -16 -6 -12 -11 4 -14
0 -11 -15 2 -12 0 -21 -4 -21 -4 0 -6 -20 -5 -45 2 -32 -1 -43 -9 -38 -8 4 -7
1 1 -9 7 -9 14 -32 15 -52 1 -20 7 -36 12 -36 6 0 3 -5 -5 -10 -10 -6 -11 -10
-2 -10 7 0 12 -15 12 -39 0 -22 5 -42 13 -44 8 -4 8 -6 -2 -6 -11 -1 -10 -5 5
-17 19 -15 19 -16 -1 -10 -18 5 -18 4 3 -10 21 -16 32 -42 12 -29 -6 3 -7 -1
-4 -9 3 -9 11 -13 18 -10 6 3 2 -2 -8 -10 -11 -9 -15 -16 -9 -16 6 0 9 -12 7
-27 -1 -15 2 -35 7 -45 7 -14 6 -20 -5 -24 -13 -5 -12 -9 7 -26 12 -11 15 -16
7 -12 -12 7 -13 5 -3 -8 7 -8 9 -19 5 -23 -4 -5 -1 -5 6 -1 8 5 14 -2 18 -23
4 -17 10 -31 15 -31 5 0 8 -3 8 -7 -3 -21 2 -33 12 -27 7 4 10 1 7 -7 -2 -7
-1 -18 4 -24 5 -5 17 -21 28 -34 11 -13 20 -28 20 -33 0 -4 7 -8 16 -8 8 0 12
-5 9 -10 -3 -6 1 -13 10 -16 9 -4 14 -13 11 -20 -3 -8 -1 -14 5 -14 6 0 9 -6
6 -14 -3 -8 -2 -16 3 -18 6 -2 11 -15 12 -30 1 -15 6 -24 10 -22 4 3 8 0 8 -5
0 -6 8 -11 17 -11 9 0 14 -3 10 -6 -8 -8 18 -34 33 -34 6 0 8 -4 5 -10 -3 -5
0 -10 8 -10 8 0 18 -7 21 -16 3 -8 10 -12 16 -9 5 3 10 1 10 -4 0 -6 7 -11 16
-11 8 0 12 -4 9 -10 -3 -5 0 -10 7 -10 19 0 68 -23 68 -32 0 -5 9 -8 21 -8 11
0 17 -4 14 -10 -3 -5 1 -10 9 -10 9 0 16 -4 16 -10 0 -5 7 -10 16 -10 8 0 12
-5 9 -10 -3 -6 3 -10 14 -10 12 0 21 -7 21 -15 0 -8 5 -15 10 -15 6 0 10 -11
10 -24 0 -14 5 -28 10 -31 5 -3 10 -16 10 -29 0 -12 3 -26 7 -30 7 -7 14 -31
16 -58 1 -10 5 -18 9 -18 4 0 8 -7 8 -15 0 -8 9 -35 21 -60 11 -24 18 -48 15
-53 -3 -6 1 -12 9 -16 8 -3 15 -15 15 -26 0 -12 4 -18 10 -15 6 3 7 -1 4 -9
-4 -9 1 -18 10 -22 9 -3 13 -10 10 -15 -3 -5 0 -9 6 -9 6 0 9 -4 6 -8 -2 -4 4
-9 15 -9 10 -1 19 3 19 9 0 5 7 8 14 5 10 -4 13 -1 10 7 -3 7 2 16 11 20 9 3
13 10 10 16 -3 6 1 13 9 16 9 3 16 13 16 20 0 8 7 17 15 20 8 4 13 9 10 13 -2
4 5 14 16 21 10 8 19 23 19 33 0 10 5 15 10 12 6 -3 10 1 10 9 0 9 5 16 11 16
5 0 8 4 5 8 -3 5 6 15 19 22 14 7 25 17 25 22 0 12 34 10 48 -4 7 -7 12 -9 12
-4 0 4 7 0 16 -8 8 -9 26 -16 38 -16 12 0 26 -3 30 -7 3 -4 12 -8 19 -9 7 -1
23 -3 37 -5 14 -2 28 -8 32 -14 5 -6 8 -5 8 3 0 8 5 10 13 5 6 -4 18 -8 26
-10 8 -1 17 -7 21 -14 12 -18 21 -89 14 -101 -4 -6 -3 -8 3 -5 6 4 14 0 17 -9
4 -10 2 -13 -7 -9 -6 4 -5 1 3 -7 17 -15 23 -48 8 -48 -6 0 0 -9 13 -21 13
-11 19 -18 12 -15 -7 4 -11 -1 -10 -14 1 -11 4 -20 7 -20 4 0 7 -7 8 -15 1 -8
3 -22 4 -30 1 -8 4 -15 8 -15 6 0 10 -16 11 -52 0 -10 4 -18 10 -18 5 0 9 -9
9 -20 0 -11 6 -23 14 -26 8 -3 13 -16 11 -30 -1 -13 2 -24 7 -24 5 0 6 -5 3
-10 -4 -6 -10 -8 -14 -6 -4 3 -7 -5 -6 -17 1 -12 -2 -28 -8 -35 -8 -10 -7 -16
2 -22 8 -4 10 -13 6 -21 -6 -9 -3 -11 9 -6 14 6 15 3 6 -13 -9 -16 -8 -20 5
-20 8 0 15 -7 15 -16 0 -10 6 -14 14 -11 10 4 13 0 11 -14 -2 -11 0 -17 4 -15
9 6 41 -29 41 -44 0 -6 5 -10 10 -10 6 0 10 -7 10 -15 0 -8 4 -15 8 -15 4 0
18 -19 30 -42 32 -59 46 -84 60 -100 6 -8 11 -17 9 -19 -1 -2 0 -3 1 -2 2 1
18 -12 34 -28 17 -16 37 -29 45 -29 8 0 27 -9 42 -19 18 -13 32 -17 41 -11 8
5 19 6 24 2 10 -6 39 -10 103 -16 18 -1 38 1 45 5 7 4 18 3 25 -3 9 -7 13 -7
13 2 0 7 7 10 16 6 9 -3 12 -2 9 4 -4 7 3 9 19 6 14 -3 26 -1 26 3 0 3 8 7 18
8 40 3 57 9 65 21 5 7 12 10 18 7 5 -4 9 -1 9 5 0 6 5 8 10 5 6 -3 10 -1 10 4
0 6 7 11 16 11 8 0 13 4 9 9 -3 5 3 17 12 27 9 9 19 26 20 38 2 11 8 25 13 30
4 4 6 15 3 22 -3 8 1 14 8 14 9 0 10 3 3 10 -6 6 -8 33 -4 63 5 44 12 59 46
93 34 34 41 47 39 78 0 21 3 40 8 43 4 3 1 14 -9 24 -9 10 -13 19 -9 19 4 0 1
8 -8 18 -10 10 -14 22 -10 25 3 4 0 7 -9 7 -8 0 -15 6 -16 13 -7 58 -20 118
-25 123 -4 4 -2 13 4 21 9 10 8 13 -1 13 -9 0 -9 4 1 17 12 15 12 16 -1 8 -12
-6 -12 -5 -3 5 12 13 43 2 46 -16 1 -5 6 -8 11 -6 5 2 6 -7 3 -18 -5 -18 -3
-19 11 -8 9 7 13 8 9 2 -8 -14 16 -37 28 -26 5 4 5 2 2 -4 -4 -6 4 -20 18 -30
13 -10 21 -22 18 -27 -3 -6 -2 -7 3 -4 6 3 28 -10 50 -29 57 -50 62 -54 74
-54 5 0 10 -4 10 -10 0 -5 9 -10 21 -10 11 0 17 -5 14 -10 -3 -6 3 -10 14 -10
11 0 23 -4 26 -10 20 -33 75 14 75 65 0 14 5 25 11 25 6 0 9 7 5 15 -4 12 7
21 17 13 1 -1 12 7 25 17 12 11 24 18 26 15 2 -3 11 2 22 10 10 8 16 11 12 6
-8 -10 43 -66 55 -59 4 2 7 -1 7 -6 0 -6 7 -11 15 -11 8 0 15 -5 15 -12 0 -6
3 -8 7 -5 3 4 18 -3 31 -15 14 -13 22 -17 18 -10 -4 6 -2 12 3 12 6 0 11 -7
11 -15 0 -8 5 -15 11 -15 5 0 7 -5 4 -10 -3 -6 1 -13 10 -16 13 -6 14 -8 3
-15 -10 -7 -9 -9 4 -9 9 0 20 -5 24 -12 4 -7 3 -8 -4 -4 -7 4 -12 2 -12 -3 0
-6 7 -11 15 -11 9 0 18 -6 20 -12 6 -15 65 -20 65 -5 0 5 7 4 15 -3 8 -7 15
-8 15 -3 0 6 10 9 23 8 12 -1 29 -3 38 -4 8 0 24 -9 35 -19 10 -10 34 -25 52
-32 17 -8 32 -18 32 -22 0 -5 9 -8 20 -8 11 0 20 -4 20 -10 0 -5 7 -7 15 -4 8
4 15 1 15 -6 0 -6 5 -8 10 -5 6 3 10 0 10 -7 0 -9 3 -10 8 -2 6 10 20 11 47 3
15 -4 59 12 67 25 5 8 8 7 8 -2 0 -9 9 -7 29 7 16 12 37 21 46 21 9 0 14 4 11
8 -3 5 6 16 20 26 13 11 24 26 24 34 0 8 3 12 7 8 8 -8 52 81 52 107 1 10 5
16 10 13 5 -4 7 3 4 14 -3 12 0 20 7 20 10 0 10 3 0 15 -8 10 -9 15 -1 15 7 0
8 8 1 26 -6 14 -8 30 -4 35 3 5 1 9 -3 9 -5 0 -9 10 -10 22 -1 11 -6 24 -10
27 -4 3 -10 13 -12 21 -2 8 -4 20 -6 25 -5 21 -19 50 -27 55 -4 3 -9 17 -10
30 -2 14 -7 29 -13 33 -6 6 -6 10 2 14 10 3 10 12 -1 38 -8 18 -12 36 -8 39 3
3 1 6 -5 6 -9 0 -22 26 -27 53 0 4 -7 11 -14 16 -8 5 -14 12 -14 17 -1 15 -21
54 -28 54 -4 0 -7 6 -8 13 0 6 -3 21 -5 32 -2 11 2 32 10 48 9 19 10 27 2 27
-8 0 -8 4 1 15 11 13 10 14 -4 9 -9 -4 -16 -3 -15 2 1 5 0 16 -4 24 -12 32
-15 60 -6 54 6 -3 22 6 36 20 14 14 29 23 34 20 5 -3 6 1 4 9 -4 8 6 19 22 27
15 8 36 21 46 29 9 8 17 10 17 6 0 -5 7 0 15 11 8 10 15 15 15 11 0 -5 12 5
26 22 14 17 31 28 37 24 7 -3 9 -3 5 2 -8 9 15 35 32 35 6 0 9 4 6 9 -3 5 1
11 9 15 8 3 12 12 9 21 -5 11 -2 14 12 8 11 -4 15 -3 11 4 -4 6 0 19 9 27 9 9
11 16 4 16 -7 0 -5 6 4 16 9 8 17 20 17 25 2 10 5 25 9 37 1 4 2 10 1 15 0 4
9 7 21 7 12 0 18 3 15 6 -7 7 30 44 45 44 4 0 7 6 6 13 -2 6 3 11 10 9 6 -1
12 5 12 13 0 8 5 15 10 15 6 0 15 11 20 25 5 14 13 25 18 25 10 0 37 50 34 63
-1 4 2 7 8 7 5 0 10 7 10 15 0 8 5 15 10 15 6 0 10 9 10 20 0 11 5 20 12 20 6
0 9 3 5 6 -3 4 7 26 24 50 17 24 28 48 25 53 -3 5 4 11 16 14 19 5 20 8 7 23
-9 12 -10 15 -1 10 7 -4 12 -1 12 9 0 10 5 13 13 9 7 -5 6 0 -3 11 -9 11 -10
16 -2 11 8 -5 14 2 18 23 4 17 12 31 18 31 6 0 6 4 -2 9 -11 7 -11 9 2 14 9 4
13 14 11 27 -2 11 1 20 8 20 8 0 9 3 1 8 -6 4 -10 19 -9 34 1 15 -2 25 -6 22
-4 -2 -18 6 -30 18 -12 13 -19 16 -15 8 5 -9 2 -8 -7 2 -8 10 -20 18 -27 18
-10 0 -9 4 1 17 8 9 9 14 3 10 -7 -4 -14 0 -17 8 -4 9 -1 12 7 9 10 -4 12 2 9
20 -3 14 -10 26 -17 26 -6 0 -4 4 3 9 12 8 9 11 -11 16 -15 4 -29 13 -32 22
-3 8 -10 12 -16 8 -5 -3 -18 3 -30 15 -12 12 -20 15 -20 8 0 -9 -3 -9 -8 -3
-10 15 -75 45 -84 39 -4 -3 -8 0 -8 5 0 6 -12 11 -26 11 -14 0 -23 4 -19 10 3
6 -4 10 -17 10 -13 0 -28 4 -34 10 -5 5 -18 11 -29 13 -11 2 -28 7 -37 11 -9
4 -25 9 -35 11 -10 2 -18 4 -18 5 0 2 -30 9 -55 14 -29 6 -51 18 -81 47 -17
16 -39 29 -49 29 -11 0 -22 5 -25 10 -4 6 -11 8 -16 4 -9 -5 -57 -13 -101 -17
-10 -1 -18 -5 -18 -10 0 -5 -8 -3 -17 4 -14 12 -16 12 -8 0 6 -10 4 -12 -4 -7
-7 5 -10 14 -7 22 3 8 1 14 -4 14 -5 0 -7 7 -4 15 4 8 1 15 -5 15 -6 0 -8 6
-5 14 3 7 -2 20 -10 29 -9 9 -16 20 -16 26 0 10 -7 13 -27 10 -3 0 -10 6 -15
15 -5 9 -13 14 -18 11 -5 -3 -12 -1 -15 5 -4 6 -16 8 -28 5 -17 -5 -19 -4 -7
4 13 9 13 11 -2 11 -10 0 -18 5 -18 11 0 8 -6 7 -17 -2 -9 -8 -14 -9 -10 -3 4
7 0 15 -9 18 -9 3 -14 12 -11 20 3 7 -3 19 -13 26 -11 8 -16 18 -13 23 3 4 -5
19 -18 33 -12 13 -19 24 -15 24 5 0 3 7 -4 15 -11 13 -10 14 5 9 14 -6 16 -4
10 7 -7 11 -6 12 6 3 8 -6 22 -10 31 -9 9 2 19 -4 22 -12 3 -8 11 -11 16 -8 6
4 18 1 27 -7 15 -12 15 -11 4 9 -6 13 -8 23 -3 23 5 0 14 -10 20 -22 11 -22
11 -21 7 6 -3 21 -1 26 7 18 11 -11 41 -5 33 8 -3 4 11 7 31 5 22 -1 44 5 59
17 24 18 24 18 35 -2 8 -14 8 -20 0 -20 -6 0 -8 -5 -4 -12 4 -7 3 -8 -5 -4 -6
4 -9 11 -6 16 3 5 0 12 -7 16 -7 4 -10 4 -6 -1 9 -10 -9 -45 -24 -45 -7 0 -6
6 3 18 12 15 11 15 -7 -1 -16 -15 -17 -19 -4 -28 12 -8 11 -9 -5 -7 -14 2 -20
-2 -19 -15 2 -15 -1 -16 -14 -5 -14 12 -14 10 -2 -12 13 -24 12 -24 -5 -10
-17 14 -17 14 -7 -6 6 -12 8 -25 4 -29 -4 -5 -2 -5 5 -2 6 4 17 1 25 -6 13
-14 21 -17 39 -17 5 0 7 -6 3 -13 -5 -8 -2 -8 9 2 10 8 17 9 17 3 0 -6 9 -9
20 -7 13 2 20 -2 20 -11 0 -8 5 -12 10 -9 6 4 8 10 5 15 -8 13 21 6 39 -9 13
-11 16 -11 16 0 0 9 3 10 8 3 10 -15 192 -16 192 0 0 7 3 7 8 1 10 -14 32 -17
32 -5 0 7 7 7 21 -1 17 -9 20 -8 14 2 -6 9 -3 11 8 6 10 -4 17 -1 17 6 0 8 4
6 10 -3 7 -12 10 -12 10 -1 0 7 6 11 15 8 8 -4 17 -2 20 3 3 5 12 7 20 3 8 -3
15 0 15 7 0 10 3 10 14 1 11 -9 15 -9 19 1 4 11 6 10 6 0 1 -7 6 -10 11 -7 6
3 10 1 10 -4 0 -6 8 -11 18 -11 10 0 23 -5 30 -12 9 -9 12 -9 12 3 0 11 2 12
9 0 5 -7 23 -14 40 -15 17 0 31 -3 31 -6 0 -3 21 -5 48 -5 26 0 57 -3 70 -7
15 -5 22 -4 22 5 0 8 4 7 10 -3 5 -8 10 -10 10 -5 0 6 20 10 45 9 25 -1 48 2
50 7 3 4 17 4 31 -1 14 -6 23 -6 20 -2 -2 4 14 9 37 10 59 3 73 6 93 22 10 8
15 10 11 4 -4 -8 2 -11 17 -10 13 0 22 4 19 9 -2 4 8 7 22 7 15 0 24 4 20 10
-3 6 1 7 10 4 8 -4 21 -1 29 5 7 6 16 8 19 4 4 -3 9 1 13 10 3 9 12 13 20 10
8 -3 14 0 14 6 0 6 6 8 14 5 7 -3 16 2 20 11 3 9 10 13 16 10 6 -3 13 1 16 9
3 9 10 13 15 11 4 -3 14 3 20 14 7 11 19 17 27 13 10 -3 13 -1 8 6 -4 7 -2 12
3 12 6 0 28 16 48 35 20 19 41 35 46 35 10 0 -2 -44 -14 -48 -4 -2 -5 -10 -2
-19 4 -11 3 -14 -6 -9 -8 5 -11 3 -9 -5 1 -8 -8 -31 -20 -51 -13 -21 -20 -43
-16 -49 4 -7 3 -9 -3 -6 -10 7 -28 -20 -25 -35 1 -5 -4 -8 -12 -8 -9 0 -13 -7
-11 -19 2 -14 -1 -18 -10 -15 -14 6 -39 -29 -28 -40 6 -5 -12 -10 -29 -7 -5 0
-8 -8 -8 -20 0 -11 -4 -17 -10 -14 -5 3 -10 -1 -10 -10 0 -9 -4 -14 -9 -11 -4
3 -19 -8 -31 -24 -13 -17 -29 -30 -35 -30 -7 0 -15 -6 -18 -13 -2 -7 -23 -22
-46 -32 -22 -11 -41 -24 -41 -28 0 -5 -4 -6 -9 -2 -5 3 -17 -2 -25 -11 -9 -8
-16 -12 -16 -9 0 4 -12 0 -26 -10 -14 -9 -28 -14 -31 -11 -3 3 -15 0 -27 -6
-22 -12 -52 -13 -98 -3 -19 4 -28 1 -28 -7 0 -10 -2 -10 -9 0 -8 14 -28 13
-46 -2 -13 -12 -17 -46 -5 -46 5 0 7 -9 5 -21 -4 -18 -2 -19 11 -8 9 7 14 8
12 2 -2 -6 14 -23 35 -37 21 -15 36 -22 32 -16 -3 6 0 7 9 4 9 -3 14 -10 11
-15 -3 -4 3 -6 15 -4 11 2 22 -1 25 -6 4 -5 11 -7 16 -3 5 3 17 0 25 -7 9 -7
23 -14 32 -15 10 -1 38 -6 64 -12 33 -6 50 -6 58 2 7 6 11 7 10 1 -5 -22 1
-27 15 -15 12 10 15 10 15 -1 0 -11 2 -11 10 1 5 8 10 10 10 4 0 -6 23 -10 54
-11 30 0 59 -4 65 -7 6 -4 11 -2 11 5 0 10 3 10 12 1 9 -9 14 -7 24 6 8 9 14
12 14 6 0 -7 8 -15 17 -18 10 -4 14 -4 10 0 -9 9 35 33 48 25 17 -9 93 -7 87
3 -3 5 5 7 16 4 12 -4 25 -2 28 4 3 5 12 7 19 4 7 -2 24 2 39 9 19 10 25 11
20 2 -5 -9 -3 -9 7 1 7 6 23 12 35 12 13 0 26 5 29 11 4 5 12 8 18 6 7 -2 18
3 25 12 10 12 12 13 6 1 -7 -12 -5 -13 8 -3 8 7 19 9 23 5 5 -4 5 -1 1 6 -5 8
1 12 18 12 17 0 26 6 26 16 0 8 5 12 10 9 6 -4 26 3 45 15 19 12 35 18 35 15
0 -4 6 -2 13 4 10 8 14 7 14 -4 0 -8 -4 -12 -9 -9 -4 3 -8 -2 -8 -10 0 -9 -5
-16 -11 -16 -5 0 -8 -4 -4 -9 3 -5 -2 -17 -11 -25 -8 -9 -12 -16 -8 -16 4 0
-3 -8 -14 -19 -12 -10 -19 -21 -15 -24 3 -4 -8 -19 -25 -35 -17 -16 -29 -32
-26 -35 3 -3 -4 -8 -15 -12 -12 -3 -19 -10 -16 -15 3 -5 -4 -11 -15 -15 -11
-4 -18 -10 -16 -14 3 -4 -4 -13 -16 -20 -16 -10 -19 -10 -12 1 6 10 5 11 -7 1
-9 -7 -26 -14 -38 -16 -24 -4 -41 -22 -41 -45 0 -7 5 -10 10 -7 6 4 7 11 4 17
-5 7 -2 8 5 4 9 -6 8 -12 -4 -26 -11 -13 -13 -20 -5 -25 6 -4 15 -18 20 -31 6
-15 15 -22 24 -18 8 3 17 0 21 -6 6 -9 10 -9 16 1 8 12 10 12 18 0 6 -9 10
-10 16 -2 5 9 10 9 20 1 9 -8 14 -6 19 5 4 12 10 13 25 6 10 -6 21 -8 23 -5 6
6 56 16 78 17 8 0 20 4 26 9 12 9 47 19 72 20 6 1 12 5 12 10 0 5 5 6 10 3 6
-3 10 -1 10 4 0 6 3 10 8 9 10 -2 42 12 85 39 20 13 37 20 37 16 0 -4 7 3 16
15 8 12 20 20 25 17 5 -4 12 1 15 9 3 9 10 13 15 10 5 -3 9 2 9 11 0 9 4 13
10 10 5 -3 15 3 22 15 7 11 21 20 30 20 10 0 18 7 18 15 0 9 11 20 25 27 13 6
23 14 20 17 -2 4 10 16 26 26 16 11 27 25 25 32 -3 7 4 15 15 18 10 4 19 13
19 21 0 8 7 14 17 14 9 0 14 3 10 6 -3 4 1 13 9 21 8 8 11 19 8 25 -4 7 -2 8
4 4 7 -4 12 -2 12 4 0 6 5 8 10 5 6 -3 10 -1 10 4 0 6 6 10 13 9 6 -2 11 3 9
10 -1 8 2 11 7 7 13 -7 51 16 51 31 0 7 7 15 16 18 8 3 12 11 9 16 -4 6 -1 9
7 8 7 -2 12 3 10 10 -1 6 3 12 9 12 14 0 43 35 77 92 15 27 31 48 35 48 5 0 6
4 3 9 -3 5 1 14 9 21 8 7 15 21 15 32 0 12 4 17 12 12 6 -4 8 -3 5 3 -4 6 3
28 13 49 11 21 18 45 15 52 -3 7 0 10 5 7 6 -3 11 -1 11 4 2 12 5 26 9 39 1 4
2 10 1 14 0 5 3 8 8 8 5 0 8 8 6 17 -1 10 2 23 7 30 5 7 7 16 4 22 -3 5 1 12
10 15 14 5 14 9 3 23 -12 14 -12 16 0 8 11 -6 13 -4 8 8 -3 9 -2 19 3 22 4 3
7 16 6 30 -2 13 1 22 5 19 5 -3 9 7 10 23 0 26 17 78 18 59 1 -5 9 1 20 12 10
12 26 22 35 22 11 0 14 5 10 12 -5 8 -2 9 12 4 10 -4 15 -4 12 0 -8 8 16 34
31 34 6 0 11 5 11 10 0 6 5 10 11 10 13 0 169 157 169 170 0 5 5 9 12 8 7 -2
12 3 13 10 0 8 7 19 16 25 9 7 17 17 19 22 7 23 33 54 41 49 5 -3 9 -2 8 3 -3
18 2 31 21 53 11 12 17 27 14 31 -3 5 -1 9 3 9 5 0 17 18 27 40 10 22 22 40
27 40 6 0 7 5 4 10 -3 5 -1 10 5 10 6 0 8 5 4 12 -4 6 1 17 11 25 13 9 14 13
5 13 -9 0 -8 5 6 16 10 8 12 12 4 8 -13 -7 -13 -6 0 10 14 18 17 26 22 61 2
11 9 24 16 28 7 5 10 12 7 16 -2 5 1 28 8 52 17 55 17 56 17 75 0 9 5 12 13 8
9 -5 9 -4 1 5 -8 8 -9 25 -3 49 4 20 6 40 3 44 -3 4 -1 8 5 8 6 0 9 16 7 35
-1 19 0 35 3 35 9 0 6 254 -3 268 -4 7 -2 12 4 12 6 0 8 5 4 12 -7 12 -14 62
-17 128 -1 19 -5 37 -9 40 -3 3 -9 21 -11 40 -3 19 -6 35 -7 35 -1 0 -4 18 -6
40 -3 22 -10 42 -15 46 -6 3 -10 8 -8 10 1 2 -1 15 -5 29 -5 14 -7 31 -7 38 1
6 -2 12 -6 12 -4 0 -9 12 -10 27 0 15 -6 29 -12 31 -5 2 -7 10 -4 18 3 8 0 14
-7 14 -6 0 -9 4 -6 8 3 5 -4 25 -14 45 -11 21 -18 37 -15 37 2 0 -4 16 -15 36
-11 19 -16 32 -10 29 7 -4 6 2 -2 14 -7 12 -16 21 -21 21 -4 0 -6 4 -2 9 3 5
1 12 -5 16 -6 4 -8 10 -5 15 3 5 -3 13 -12 19 -10 6 -14 11 -9 11 5 0 1 10
-10 22 -10 12 -13 18 -6 14 17 -10 15 -2 -8 24 -11 13 -20 29 -20 37 0 7 -5
13 -10 13 -6 0 -10 3 -9 8 2 15 -14 52 -22 52 -5 0 -9 9 -9 21 0 11 -4 18 -9
14 -5 -3 -13 5 -17 17 -3 12 -13 28 -20 36 -8 7 -12 18 -9 23 4 5 -1 9 -9 9
-9 0 -15 3 -15 8 3 19 -2 33 -11 27 -5 -3 -10 3 -10 13 0 11 -7 23 -16 26 -8
3 -13 10 -10 14 3 5 -4 14 -14 22 -10 8 -17 17 -14 22 3 4 -2 8 -10 8 -14 0
-20 12 -17 33 0 4 -6 7 -16 7 -9 0 -14 3 -10 6 3 3 -5 17 -19 31 -13 13 -24
28 -24 33 0 6 -7 10 -16 10 -8 0 -13 4 -10 9 8 12 -29 43 -39 34 -4 -5 -5 -3
-1 4 3 6 2 14 -4 18 -6 4 -8 11 -4 16 3 5 1 8 -4 7 -6 -2 -11 2 -13 7 -5 16
-23 33 -34 32 -5 -1 -9 4 -7 11 1 6 -2 12 -7 12 -13 0 -70 58 -63 64 3 3 -2 6
-11 6 -9 0 -17 6 -17 14 0 8 -9 18 -20 21 -11 4 -18 11 -15 16 4 5 2 9 -4 9
-5 0 -27 16 -48 35 -63 57 -73 65 -83 65 -5 0 -14 9 -20 20 -6 11 -18 20 -26
20 -8 0 -13 4 -10 8 2 4 -8 13 -24 21 -16 7 -32 21 -35 32 -4 11 -12 17 -18
13 -7 -3 -1 4 12 15 14 13 18 21 10 21 -10 1 -10 3 2 10 8 5 21 27 29 49 7 22
16 39 19 36 4 -2 8 8 9 23 1 14 7 29 13 32 5 4 11 17 12 28 1 12 6 22 12 22 5
0 3 5 -5 10 -8 5 -10 10 -4 10 11 0 14 13 15 62 1 18 5 25 13 21 6 -4 5 0 -2
9 -7 9 -12 22 -11 30 4 31 -2 59 -11 53 -9 -6 -14 8 -11 28 1 7 -15 11 -31 8
-5 0 -8 3 -8 8 0 5 -14 23 -32 40 -17 17 -26 31 -19 31 7 0 9 5 6 10 -3 6 -1
10 5 10 6 0 8 5 5 10 -3 6 1 13 9 16 9 3 13 10 10 15 -3 5 -1 9 4 9 4 0 14 16
22 35 8 19 17 35 21 35 4 0 12 14 18 30 5 17 15 30 20 30 6 0 11 9 11 20 0 11
3 20 8 20 8 0 32 49 32 67 0 7 5 13 10 13 6 0 10 6 10 14 0 8 7 27 14 43 19
35 30 66 28 76 -1 4 3 7 10 7 6 0 8 3 5 7 -4 3 1 15 10 25 14 16 15 21 4 27
-11 7 -11 9 -1 13 7 2 15 15 17 29 2 13 8 25 13 27 5 2 6 10 4 17 -3 8 -2 20
2 27 9 13 13 29 16 61 1 9 6 17 11 17 4 0 7 8 6 18 -1 9 0 19 1 22 7 18 12 49
12 73 0 15 3 27 7 27 4 0 5 24 4 53 -4 72 -5 77 -15 77 -4 0 -8 7 -8 16 0 8
-3 13 -7 11 -5 -3 -14 1 -21 9 -8 9 -9 14 -2 14 7 0 6 5 -2 14 -7 8 -16 12
-20 9 -5 -2 -8 3 -8 11 0 9 -7 13 -20 11 -11 -2 -20 0 -20 5 0 5 -9 7 -20 5
-11 -2 -20 0 -20 6 0 5 -13 9 -28 9 -15 0 -33 5 -40 12 -9 9 -12 9 -12 -3 0
-11 -2 -11 -8 -1 -5 6 -32 13 -60 15 -29 1 -52 5 -52 8 0 3 -6 6 -12 7 -7 0
-47 3 -88 6 -41 3 -75 6 -75 6 0 7 -36 6 -41 -1 -4 -6 -10 -6 -17 0 -15 12
-79 17 -95 7 -6 -4 -12 -4 -12 1 0 12 -154 10 -162 -2 -5 -7 -8 -6 -8 1 0 8
-13 9 -37 5 -21 -4 -57 -6 -80 -6 -24 0 -43 -4 -43 -9 0 -5 -7 -3 -15 4 -12
10 -15 10 -15 0 0 -10 -3 -10 -15 0 -11 9 -15 10 -15 0 0 -6 -12 3 -27 22 -16
18 -43 48 -60 66 -18 18 -33 39 -33 47 0 8 -6 15 -14 15 -8 0 -18 9 -21 20 -3
11 -13 20 -21 20 -8 0 -14 7 -14 16 0 8 -4 12 -10 9 -5 -3 -10 -1 -10 5 0 14
-58 70 -72 70 -5 0 -6 5 -3 10 3 6 -1 10 -9 10 -9 0 -16 5 -16 10 0 6 -15 17
-32 25 -18 8 -30 14 -25 15 10 0 -65 70 -77 70 -5 0 -6 3 -3 7 4 3 -1 12 -11
19 -9 7 -18 17 -18 23 -1 6 -2 12 -3 14 -1 1 -4 18 -7 37 -2 19 -9 39 -14 44
-6 6 -5 16 1 28 7 12 6 18 -2 18 -6 0 -9 7 -5 15 3 8 1 15 -5 15 -6 0 -7 5 -4
10 4 6 0 24 -9 40 -9 19 -10 30 -4 30 6 0 3 10 -8 22 -12 14 -14 19 -4 13 12
-6 13 -5 3 6 -7 7 -13 23 -13 34 0 12 -3 25 -7 29 -7 7 -12 27 -16 63 -1 11
-5 19 -9 16 -5 -2 -9 3 -9 11 -1 9 -3 19 -4 24 -2 4 -6 17 -10 30 -4 12 -12
22 -19 22 -6 0 -4 5 4 10 12 7 12 10 1 10 -7 0 -11 6 -8 14 3 8 -1 17 -10 20
-8 4 -13 13 -9 21 3 8 -1 21 -9 29 -8 8 -15 21 -15 30 0 8 -4 18 -10 21 -5 3
-10 15 -10 26 0 11 -4 17 -10 14 -5 -3 -10 3 -10 14 0 12 -4 21 -10 21 -5 0
-9 3 -8 8 2 11 -13 45 -30 65 -8 9 -11 17 -7 17 4 0 -2 9 -15 20 -13 11 -20
20 -17 20 4 0 -1 10 -11 21 -50 62 -79 89 -94 89 -10 0 -18 5 -18 11 0 17
-127 4 -141 -14 -3 -5 -13 -9 -21 -11 -8 -1 -22 -8 -31 -16 -8 -8 -30 -26 -48
-40 -18 -14 -50 -41 -70 -62 -21 -20 -41 -33 -45 -30 -4 4 -4 -1 -1 -11 4 -11
3 -16 -3 -12 -5 3 -20 -3 -32 -14 -12 -12 -19 -21 -15 -21 3 0 -6 -12 -21 -27
-15 -15 -30 -27 -34 -25 -5 1 -7 -2 -5 -6 1 -4 -13 -22 -31 -40 -18 -18 -27
-32 -20 -33 7 0 5 -4 -5 -8 -10 -4 -18 -9 -17 -11 1 -3 -14 -23 -34 -44 -20
-22 -36 -45 -36 -52 0 -6 -7 -15 -16 -18 -9 -4 -14 -9 -11 -12 3 -3 -5 -17
-19 -31 -13 -13 -24 -30 -24 -37 0 -8 -7 -17 -16 -20 -8 -3 -12 -10 -9 -16 3
-5 1 -10 -5 -10 -7 0 -9 -7 -6 -17 4 -10 4 -14 0 -10 -10 10 -36 -31 -28 -45
4 -6 3 -8 -4 -4 -6 3 -13 -3 -17 -14 -3 -11 -10 -20 -15 -20 -5 0 -12 -10 -15
-21 -4 -12 -10 -17 -14 -12 -3 5 -17 9 -31 9 -14 0 -31 3 -38 8 -6 4 -12 5
-12 1 0 -3 -10 -1 -21 6 -16 8 -20 8 -14 -1 6 -9 3 -9 -13 -1 -11 6 -32 11
-46 11 -13 0 -27 6 -29 13 -4 9 -6 9 -6 0 -1 -7 -8 -10 -16 -7 -8 4 -12 11 -8
18 4 6 -1 5 -10 -3 -13 -10 -17 -10 -17 -1 0 9 -4 9 -17 -1 -13 -11 -15 -11
-9 -1 6 11 1 12 -23 9 -21 -4 -29 -2 -24 5 4 7 -2 9 -15 6 -12 -4 -22 -3 -22
1 0 4 -12 6 -27 6 -16 -1 -33 2 -39 7 -5 4 -30 9 -55 10 -24 2 -46 6 -49 10
-3 4 -36 9 -73 10 -37 2 -67 6 -67 9 0 6 -72 12 -172 13 -38 1 -68 4 -68 7 0
8 -45 3 -61 -7 -7 -4 -10 -3 -6 3 5 7 -14 10 -54 9 -43 -2 -62 1 -66 11 -3 7
-10 13 -15 13 -6 0 -19 10 -29 22 -11 11 -19 18 -19 14 0 -3 -15 8 -34 26 -55
52 -85 78 -91 78 -12 0 -34 28 -27 35 4 4 3 5 -3 4 -14 -4 -55 11 -55 20 0 4
-12 13 -26 19 -14 7 -22 17 -19 22 4 6 3 10 -2 9 -15 -2 -53 13 -53 22 0 5 -7
9 -15 9 -8 0 -15 5 -15 10 0 6 -7 10 -15 10 -8 0 -15 5 -15 10 0 6 -7 10 -16
10 -8 0 -12 5 -9 10 4 6 3 9 -2 8 -14 -5 -73 24 -67 33 3 5 -2 9 -10 9 -17 0
-89 40 -94 52 -2 4 -12 8 -23 8 -10 0 -19 5 -19 11 0 5 -4 7 -10 4 -5 -3 -10
-1 -10 4 0 6 -3 10 -7 9 -5 -1 -18 3 -29 10 -12 6 -24 8 -28 5 -3 -3 -6 -1 -6
5 0 7 -7 12 -15 12 -8 0 -15 5 -15 10 0 6 -8 10 -18 10 -10 0 -23 5 -30 12 -7
7 -12 8 -12 3 0 -4 -10 0 -22 11 -14 13 -19 14 -14 4 6 -12 5 -12 -6 1 -7 9
-19 14 -25 12 -7 -3 -13 -1 -13 4 0 5 -12 10 -27 11 -15 1 -30 8 -35 15 -4 6
-8 8 -8 3 0 -5 -7 -3 -15 4 -8 6 -19 9 -25 5 -5 -3 -10 -1 -10 5 0 7 -6 10
-14 7 -7 -3 -19 0 -25 6 -6 6 -11 7 -11 1 0 -5 -4 -4 -8 1 -9 14 -111 47 -123
39 -5 -3 -9 -1 -9 3 0 5 -9 14 -21 21 -16 10 -19 10 -13 1 5 -9 2 -10 -12 -5
-10 4 -28 9 -38 12 -11 2 -23 9 -27 15 -5 8 -8 7 -12 -2 -4 -11 -6 -11 -6 -1
-1 7 -5 10 -11 7 -5 -3 -16 -3 -22 2 -7 4 -22 8 -33 8 -11 0 -26 4 -33 9 -7 4
-23 9 -35 11 -12 2 -41 7 -64 11 -24 4 -43 12 -43 18 0 6 -5 4 -10 -4 -5 -8
-10 -10 -10 -5 0 6 -19 11 -41 12 -23 2 -49 8 -57 15 -13 10 -14 10 -8 1 4 -7
3 -13 -1 -13 -5 0 -15 6 -22 13 -11 10 -12 9 -6 -3 8 -13 7 -13 -8 -1 -9 7
-17 10 -17 6 0 -4 -6 -4 -12 1 -7 5 -42 9 -78 9 -36 0 -68 5 -72 10 -5 6 -8 5
-8 -2 0 -9 -7 -10 -25 -3 -16 6 -26 6 -31 -1 -5 -8 -9 -8 -13 0 -4 6 -10 9
-13 5z m-1348 -4009 c16 10 20 -13 5 -25 -8 -7 -15 -21 -15 -31 0 -11 -5 -19
-11 -19 -5 0 -7 -4 -4 -10 3 -5 1 -10 -5 -10 -7 0 -9 -7 -6 -16 3 -8 2 -12 -4
-9 -9 6 -14 -7 -11 -27 0 -4 -7 -4 -17 -1 -9 3 -14 3 -10 -2 4 -4 3 -14 -3
-22 -6 -7 -8 -13 -4 -13 3 0 -3 -12 -14 -26 -11 -15 -18 -30 -16 -34 3 -5 -5
-16 -17 -24 -12 -9 -19 -16 -14 -16 5 0 3 -7 -4 -15 -7 -8 -9 -15 -5 -15 5 0
-2 -9 -15 -20 -13 -11 -20 -20 -15 -20 4 0 2 -7 -5 -15 -7 -8 -9 -15 -4 -15 4
0 -1 -7 -12 -16 -10 -8 -12 -12 -4 -8 8 4 3 -5 -11 -19 -15 -15 -29 -41 -33
-58 -3 -17 -10 -28 -16 -24 -6 4 -9 3 -8 -2 4 -14 -13 -53 -23 -53 -6 0 -8 -4
-4 -9 3 -5 -1 -15 -8 -23 -14 -13 -17 -21 -17 -39 0 -5 -5 -7 -12 -3 -8 5 -9
2 -5 -9 3 -10 2 -17 -3 -17 -6 0 -10 -9 -10 -20 0 -11 -4 -20 -10 -20 -5 0
-10 -7 -10 -15 0 -8 -4 -15 -9 -15 -5 0 -8 -11 -7 -24 2 -17 -1 -23 -10 -19
-9 3 -12 -2 -9 -16 2 -12 1 -21 -3 -21 -8 0 -37 -62 -34 -72 1 -5 -3 -8 -8 -8
-6 0 -10 -7 -10 -15 0 -8 -5 -15 -11 -15 -5 0 -7 -5 -4 -11 4 -6 -1 -17 -11
-25 -11 -9 -13 -13 -6 -9 6 3 12 1 12 -4 0 -6 -4 -11 -10 -11 -5 0 -10 -7 -10
-15 0 -8 -5 -15 -11 -15 -5 0 -7 -5 -4 -10 3 -6 -4 -24 -16 -42 -13 -17 -18
-28 -11 -24 7 4 12 2 12 -3 0 -6 -3 -11 -7 -11 -5 0 -13 -11 -20 -25 -8 -19
-8 -23 0 -18 7 3 5 -2 -4 -13 -26 -31 -34 -48 -19 -39 8 5 4 -5 -8 -23 -12
-17 -21 -34 -20 -39 1 -4 -4 -18 -12 -30 -14 -22 -14 -22 -52 20 -21 23 -38
47 -38 54 0 6 -5 13 -11 15 -5 2 -11 11 -12 20 -2 9 -7 22 -13 29 -28 38 -45
71 -33 63 12 -6 12 -5 0 9 -7 9 -17 15 -21 12 -4 -2 -6 7 -4 20 1 14 -2 25 -7
25 -5 0 -8 3 -7 8 1 4 -3 17 -10 30 -7 12 -10 28 -6 34 4 7 3 8 -4 4 -8 -5
-12 2 -12 19 0 17 -4 24 -12 19 -8 -5 -9 -2 -5 9 4 10 2 17 -4 17 -6 0 -9 7
-5 15 3 8 0 15 -6 15 -6 0 -8 3 -5 7 4 3 2 12 -4 20 -6 7 -8 13 -4 13 4 0 1 8
-6 17 -8 9 -9 14 -2 10 8 -5 8 -1 0 18 -7 14 -16 25 -20 25 -4 0 -3 8 2 19 8
14 6 22 -8 35 -17 15 -17 20 -5 44 7 15 22 37 34 50 11 12 18 22 15 22 -2 0 9
13 25 28 16 16 26 32 22 36 -4 4 -2 6 3 4 6 -1 27 14 47 35 21 20 40 37 43 37
3 0 17 11 31 25 14 14 29 25 35 25 6 0 7 5 4 10 -3 6 -1 10 4 10 6 0 13 0 16
0 3 0 14 9 25 20 12 12 26 18 32 14 6 -4 8 -3 5 3 -3 5 12 20 33 34 22 13 40
28 40 32 0 5 5 5 10 2 6 -3 13 1 16 9 3 9 12 16 20 16 8 0 14 5 14 11 0 6 7 9
15 5 9 -3 15 0 15 9 0 8 6 14 13 13 6 -2 11 3 9 10 -1 8 2 11 7 8 5 -4 32 7
59 23 28 16 53 27 56 24 3 -4 6 -1 6 5 0 7 7 12 16 12 8 0 22 7 31 15 8 8 19
13 24 10 5 -4 9 -2 9 3 0 5 15 14 33 19 17 5 31 14 30 20 -1 6 9 8 24 5 18 -3
24 -1 19 6 -5 8 -2 10 8 6 9 -4 16 -1 16 6 0 7 8 10 20 7 13 -3 18 -1 13 6 -4
6 0 8 10 4 9 -3 16 -3 16 1 -3 16 3 26 8 14 2 -6 9 -10 13 -7z m7140 -456 c0
-5 -4 -9 -8 -9 -5 0 -9 7 -9 15 0 8 4 12 9 9 4 -3 8 -9 8 -15z m37 -14 c0 -8
-4 -12 -9 -9 -5 3 -6 10 -3 15 9 13 12 11 12 -6z m-37 -25 c0 -5 -5 -10 -11
-10 -5 0 -7 5 -4 10 3 6 8 10 11 10 2 0 4 -4 4 -10z m-7020 -1454 c0 -3 -4 -8
-10 -11 -5 -3 -10 -1 -10 4 0 6 5 11 10 11 6 0 10 -2 10 -4z m-26 -44 c3 -5
-1 -9 -9 -9 -8 0 -12 4 -9 9 3 4 7 8 9 8 2 0 6 -4 9 -8z m63 -67 c0 -8 -4 -12
-9 -9 -5 3 -6 10 -3 15 9 13 12 11 12 -6z m-40 -67 c2 -17 0 -19 -7 -8 -5 8
-6 18 -4 22 8 12 10 10 11 -14z m207 -286 c3 -5 -1 -9 -9 -9 -8 0 -12 4 -9 9
3 4 7 8 9 8 2 0 6 -4 9 -8z m1456 -92 c0 -5 -2 -10 -4 -10 -3 0 -8 5 -11 10
-3 6 -1 10 4 10 6 0 11 -4 11 -10z m-1329 -157 c13 -16 12 -17 -3 -4 -10 7
-18 15 -18 17 0 8 8 3 21 -13z m170 -70 c13 -16 12 -17 -3 -4 -17 13 -22 21
-14 21 2 0 10 -8 17 -17z m3787 -105 c14 5 15 4 2 -10 -9 -10 -17 -12 -21 -6
-4 6 -9 5 -11 -3 -3 -8 -9 -10 -14 -5 -5 5 -4 11 4 13 6 3 9 10 6 16 -5 9 -4
9 6 0 7 -6 20 -9 28 -5z"/>
<path d="M3796 3821 c-4 -5 -2 -12 3 -15 5 -4 12 -2 15 3 4 5 2 12 -3 15 -5 4
-12 2 -15 -3z"/>
<path d="M6224 3445 c-3 -7 -14 -12 -24 -10 -13 2 -17 -1 -14 -10 3 -8 14 -13
24 -12 10 1 16 5 13 11 -4 5 1 7 10 3 10 -4 20 0 26 11 8 14 5 18 -10 19 -11
1 -22 -4 -25 -12z m26 -5 c0 -5 -2 -10 -4 -10 -3 0 -8 5 -11 10 -3 6 -1 10 4
10 6 0 11 -4 11 -10z"/>
</g>
</svg>
